<svg width="20" height="20" viewBox="0 0 20 20" fill="none" xmlns="http://www.w3.org/2000/svg">
<path d="M17.9581 10.0519C17.9581 9.79892 17.8548 9.55366 17.6648 9.37052L12.1513 3.87225C11.94 3.65947 11.7205 3.57141 11.485 3.57141C10.9664 3.57141 10.5895 3.94206 10.5895 4.44646C10.5895 4.70611 10.6881 4.93028 10.8552 5.09584L12.7302 6.99528L15.8545 9.85215L16.1454 9.30858L13.2497 9.13815H3.06625C2.51648 9.13815 2.14282 9.51265 2.14282 10.0519C2.14282 10.5911 2.51648 10.9656 3.06625 10.9656H13.2497L16.1454 10.7952L15.8545 10.26L12.7302 13.1085L10.8552 15.0064C10.6881 15.1636 10.5895 15.3961 10.5895 15.6558C10.5895 16.1602 10.9664 16.5308 11.485 16.5308C11.7205 16.5308 11.94 16.4359 12.1375 16.2437L17.6648 10.7332C17.8548 10.5501 17.9581 10.3048 17.9581 10.0519Z" fill="black"/>
</svg>
