<svg width="12" height="12" viewBox="0 0 12 12" fill="none" xmlns="http://www.w3.org/2000/svg">
<path d="M6.16464 8.9292C6.33538 8.9283 6.48988 8.86273 6.61683 8.72931L10.4408 4.81171C10.5506 4.70192 10.6099 4.56612 10.6099 4.40711C10.6099 4.07906 10.3553 3.82031 10.0299 3.82031C9.87093 3.82031 9.72286 3.88409 9.60946 3.99609L5.91874 7.78123H6.41004L2.7157 3.99609C2.60551 3.8859 2.45836 3.82031 2.29433 3.82031C1.96808 3.82031 1.71436 4.07906 1.71436 4.40711C1.71436 4.56522 1.77452 4.70102 1.8825 4.81583L5.70831 8.72931C5.84351 8.86453 5.99066 8.9292 6.16464 8.9292Z" fill="#BB945E"/>
</svg>
