<svg width="20" height="20" viewBox="0 0 20 20" fill="none" xmlns="http://www.w3.org/2000/svg">
<path d="M5.118 10.2743C5.1195 10.5589 5.22879 10.8164 5.45115 11.0279L11.9805 17.4013C12.1635 17.5843 12.3898 17.683 12.6548 17.683C13.2016 17.683 13.6328 17.2586 13.6328 16.7164C13.6328 16.4514 13.5265 16.2046 13.3398 16.0156L7.03129 9.86445L7.03129 10.6833L13.3398 4.52605C13.5235 4.3424 13.6328 4.09715 13.6328 3.82377C13.6328 3.28002 13.2016 2.85715 12.6548 2.85715C12.3913 2.85715 12.165 2.95743 11.9736 3.13739L5.45115 9.51373C5.22579 9.73907 5.118 9.98432 5.118 10.2743Z" fill="#18191E"/>
</svg>
