<svg width="24" height="24" viewBox="0 0 24 24" fill="none" xmlns="http://www.w3.org/2000/svg">
<path d="M4.60725 20.1534C5.04379 20.5799 5.78006 20.5744 6.1957 20.1588L12.3748 13.9797L18.5502 20.157C18.9731 20.5799 19.7086 20.5863 20.1369 20.1516C20.5652 19.7151 20.567 18.9961 20.1441 18.5714L13.9686 12.3859L20.1441 6.21041C20.567 5.78754 20.5734 5.06031 20.1369 4.63201C19.7003 4.19548 18.9731 4.19367 18.5502 4.62478L12.3748 10.8002L6.1957 4.62297C5.78006 4.2009 5.03555 4.18543 4.60725 4.6302C4.18076 5.06674 4.18619 5.79296 4.60183 6.2086L10.7809 12.3859L4.60183 18.575C4.18619 18.9888 4.17252 19.7251 4.60725 20.1534Z" fill="#BB945E"/>
</svg>
