<svg width="20" height="20" viewBox="0 0 20 20" fill="none" xmlns="http://www.w3.org/2000/svg">
<path d="M10.1168 11.0926C10.4706 11.0926 10.7931 10.9261 11.1705 10.5487L18.4679 3.30402C18.1461 3.01323 17.5671 2.87244 16.7459 2.87244H3.24978C2.5331 2.87244 2.02417 3.00636 1.73137 3.27657L9.06314 10.5487C9.43514 10.9192 9.75621 11.0926 10.1168 11.0926ZM0.938685 16.1386L6.94555 10.1851L0.94605 4.26629C0.79488 4.52629 0.714355 4.96423 0.714355 5.58398V14.8341C0.714355 15.448 0.787346 15.8846 0.938685 16.1386ZM3.46022 17.5525H16.9564C17.6911 17.5525 18.2083 17.4111 18.5086 17.1326L12.3861 11.0566L11.8698 11.5798C11.2846 12.1428 10.7316 12.3999 10.1168 12.3999C9.49521 12.3999 8.94057 12.1428 8.36236 11.5798L7.84069 11.0596L1.73188 17.1258C2.06954 17.4111 2.64158 17.5525 3.46022 17.5525ZM19.2759 16.1317C19.4188 15.8708 19.4933 15.4411 19.4933 14.8341V5.58398C19.4933 4.97796 19.4128 4.54002 19.2685 4.28689L13.2812 10.1851L19.2759 16.1317Z" fill="#BB945E"/>
</svg>
