<svg width="16" height="17" viewBox="0 0 16 17" fill="none" xmlns="http://www.w3.org/2000/svg">
<path d="M14.6673 11.9815V10.5H1.33398V11.9815C1.33398 12.3744 1.49007 12.7512 1.7679 13.029C2.04573 13.3069 2.42255 13.463 2.81547 13.463H13.1858C13.5787 13.463 13.9556 13.3069 14.2334 13.029C14.5112 12.7512 14.6673 12.3744 14.6673 11.9815Z" fill="#EE2024"/>
<path d="M14.6673 10.5H1.33398V5.31486C1.33398 4.92194 1.49007 4.54512 1.7679 4.26729C2.04573 3.98946 2.42255 3.83337 2.81547 3.83337H13.1858C13.5787 3.83337 13.9556 3.98946 14.2334 4.26729C14.5112 4.54512 14.6673 4.92194 14.6673 5.31486V10.5Z" fill="#EEEEEE"/>
<path d="M1.33398 6.79639H14.6673V10.5001H1.33398V6.79639Z" fill="#0A4EA2"/>
<path d="M5.71733 11.2743C5.29918 11.035 4.36993 10.4306 4.0303 9.61203C3.6877 8.78722 3.764 7.60352 3.85215 6.23278L3.87437 5.88611H8.30511L8.3277 6.23278C8.41585 7.60315 8.49215 8.78648 8.14955 9.61166C7.80955 10.4306 6.88067 11.0354 6.46215 11.2743L6.0903 11.4861L5.71733 11.2743Z" fill="white"/>
<path d="M7.95923 6.25635H4.22293C4.13479 7.62931 4.06664 8.73042 4.37368 9.46968C4.75182 10.3808 6.04627 11.0326 6.08886 11.0534V11.0556L6.09071 11.0545L6.09256 11.0556V11.0534C6.13516 11.0323 7.4296 10.3808 7.80812 9.46968C8.11553 8.73042 8.04775 7.62894 7.95923 6.25635Z" fill="#EE2024"/>
<path d="M7.20858 7.94787C7.20858 7.94787 6.68969 7.99713 6.23376 8.00898C6.22631 7.85029 6.22668 7.69134 6.23488 7.53268C6.59525 7.55491 6.84413 7.6238 6.84413 7.6238C6.93562 7.6238 7.00969 7.54972 7.00969 7.45824V7.2338C7.00969 7.14231 6.93562 7.06824 6.84413 7.06824C6.84413 7.06824 6.57043 7.11491 6.26339 7.13454C6.28969 6.84491 6.32117 6.60306 6.32117 6.60306C6.32117 6.51157 6.2471 6.4375 6.15562 6.4375H5.93154C5.84006 6.4375 5.76599 6.51157 5.76599 6.60306C5.76599 6.60306 5.80006 6.84972 5.82895 7.1375C5.63231 7.1261 5.43653 7.10298 5.24265 7.06824C5.15117 7.06824 5.0771 7.14231 5.0771 7.2338V7.45824C5.0771 7.54972 5.15117 7.6238 5.24265 7.6238C5.24265 7.6238 5.47932 7.5475 5.86117 7.52935C5.86636 7.61454 5.87006 7.69713 5.87006 7.76861C5.87006 7.82824 5.86784 7.91231 5.86413 8.00898C5.40413 7.99676 4.86673 7.94824 4.86673 7.94824C4.77525 7.94824 4.70117 8.02231 4.70117 8.1138V8.33824C4.70117 8.42972 4.77525 8.5038 4.86673 8.5038C4.86673 8.5038 5.35525 8.4638 5.84265 8.45639C5.81191 9.02343 5.76599 9.68676 5.76599 9.68676C5.76599 9.77824 5.84006 9.85231 5.93154 9.85231H6.15562C6.2471 9.85231 6.32117 9.77824 6.32117 9.68676C6.32117 9.68676 6.28006 9.03009 6.25265 8.45824C6.72376 8.46935 7.20858 8.5038 7.20858 8.5038C7.30006 8.5038 7.37413 8.42972 7.37413 8.33824V8.1138C7.37413 8.02231 7.30006 7.94787 7.20858 7.94787Z" fill="white"/>
<path d="M7.65933 9.74641C7.47118 9.34418 6.95377 9.23048 6.70822 9.72196C6.546 9.13159 6.08563 9.13159 6.08563 9.13159C6.08563 9.13159 5.62488 9.13159 5.46303 9.72196C5.21933 9.23455 4.70748 9.3427 4.51562 9.73715C5.00229 10.5053 6.05007 11.0349 6.08859 11.0538V11.0557L6.09044 11.0546L6.09229 11.0557V11.0534C6.13044 11.0346 7.17007 10.5094 7.65933 9.74641Z" fill="#0A4EA2"/>
</svg>
