<svg width="16" height="17" viewBox="0 0 16 17" fill="none" xmlns="http://www.w3.org/2000/svg">
<path d="M14.6671 11.9815C14.6671 12.3744 14.511 12.7512 14.2332 13.029C13.9554 13.3069 13.5785 13.4629 13.1856 13.4629H10.2227V3.83331H13.1856C13.5785 3.83331 13.9554 3.9894 14.2332 4.26723C14.511 4.54506 14.6671 4.92188 14.6671 5.31479V11.9815Z" fill="#ED2939"/>
<path d="M2.81547 3.83331C2.42255 3.83331 2.04573 3.9894 1.7679 4.26723C1.49007 4.54506 1.33398 4.92188 1.33398 5.31479L1.33398 11.9815C1.33398 12.3744 1.49007 12.7512 1.7679 13.029C2.04573 13.3069 2.42255 13.4629 2.81547 13.4629H5.77843V3.83331H2.81547Z" fill="#002495"/>
<path d="M5.7793 3.83331H10.2237V13.4629H5.7793V3.83331Z" fill="#EEEEEE"/>
</svg>
