<svg width="16" height="17" viewBox="0 0 16 17" fill="none" xmlns="http://www.w3.org/2000/svg">
<path d="M1.33398 5.33671V6.79634H3.41843L1.33398 5.33671ZM3.06139 13.463H6.1488V11.3012L3.06139 13.463ZM9.8525 11.3015V13.463H12.9395L9.8525 11.3015ZM1.33398 10.5V11.9597L3.41917 10.5H1.33398ZM12.9403 3.83337H9.8525V5.99523L12.9403 3.83337ZM14.6673 11.96V10.5H12.5818L14.6673 11.96ZM14.6673 6.79634V5.33671L12.5825 6.79634H14.6673ZM6.1488 3.83337H3.06139L6.1488 5.99523V3.83337Z" fill="#00247D"/>
<path d="M10.6455 10.5001L14.2426 13.0189C14.4182 12.838 14.5445 12.6149 14.6092 12.3712L11.937 10.5001H10.6455ZM6.14925 10.5001H5.35628L1.75962 13.0186C1.95258 13.2149 2.19999 13.3552 2.47739 13.4204L6.14925 10.8493V10.5001ZM9.85295 6.79635H10.6459L14.2426 4.27783C14.0463 4.07867 13.7975 3.93932 13.5252 3.87598L9.85295 6.44709V6.79635ZM5.35628 6.79635L1.75962 4.27783C1.58404 4.45893 1.45769 4.68192 1.39258 4.92561L4.0648 6.79635H5.35628Z" fill="#CF1B2B"/>
<path d="M14.6673 9.7593H9.11176V13.463H9.8525V11.3015L12.9395 13.463H13.1858C13.3826 13.463 13.5774 13.4238 13.7588 13.3475C13.9402 13.2713 14.1045 13.1595 14.2421 13.0189L10.6451 10.5H11.9366L14.6088 12.3712C14.6432 12.2463 14.6673 12.1171 14.6673 11.9815V11.96L12.5818 10.5H14.6673V9.7593ZM1.33398 9.7593V10.5H3.41917L1.33398 11.9597V11.9815C1.33398 12.3856 1.49658 12.7512 1.75917 13.0186L5.35584 10.5H6.1488V10.8493L2.47695 13.42C2.58584 13.446 2.69843 13.463 2.81547 13.463H3.06139L6.1488 11.3012V13.463H6.88954V9.7593H1.33398ZM14.6673 5.31486C14.6675 4.9267 14.5148 4.5541 14.2421 4.27782L10.6455 6.79634H9.8525V6.44708L13.5247 3.87597C13.4138 3.84875 13.3001 3.83446 13.1858 3.83337H12.9403L9.8525 5.99523V3.83337H9.11176V7.53708H14.6673V6.79634H12.5825L14.6673 5.33671V5.31486ZM6.1488 3.83337V5.99523L3.06139 3.83337H2.81547C2.61866 3.83329 2.42382 3.87256 2.24242 3.94889C2.06102 4.02522 1.89671 4.13705 1.75917 4.27782L5.35584 6.79634H4.06435L1.39213 4.9256C1.35538 5.05216 1.33583 5.18308 1.33398 5.31486V5.33671L3.41843 6.79634H1.33398V7.53708H6.88954V3.83337H6.1488Z" fill="#EEEEEE"/>
<path d="M9.11176 7.53708V3.83337H6.88954V7.53708H1.33398V9.7593H6.88954V13.463H9.11176V9.7593H14.6673V7.53708H9.11176Z" fill="#CF1B2B"/>
</svg>
