<svg width="16" height="17" viewBox="0 0 16 17" fill="none" xmlns="http://www.w3.org/2000/svg">
<path d="M1.33398 11.9815C1.33398 12.3745 1.49007 12.7513 1.7679 13.0291C2.04573 13.3069 2.42255 13.463 2.81547 13.463H13.1858C13.5787 13.463 13.9556 13.3069 14.2334 13.0291C14.5112 12.7513 14.6673 12.3745 14.6673 11.9815V10.5001H1.33398V11.9815Z" fill="#FFCD05"/>
<path d="M1.33398 7.16669H14.6673V10.5H1.33398V7.16669Z" fill="#ED1F24"/>
<path d="M13.1858 3.83337H2.81547C2.42255 3.83337 2.04573 3.98946 1.7679 4.26729C1.49007 4.54512 1.33398 4.92194 1.33398 5.31486L1.33398 7.16671H14.6673V5.31486C14.6673 4.92194 14.5112 4.54512 14.2334 4.26729C13.9556 3.98946 13.5787 3.83337 13.1858 3.83337Z" fill="#141414"/>
</svg>
