<svg width="16" height="17" viewBox="0 0 16 17" fill="none" xmlns="http://www.w3.org/2000/svg">
<path d="M14.6671 11.9815C14.6671 12.3744 14.511 12.7513 14.2332 13.0291C13.9554 13.3069 13.5785 13.463 13.1856 13.463H10.2227V3.83337H13.1856C13.5785 3.83337 13.9554 3.98946 14.2332 4.26729C14.511 4.54512 14.6671 4.92194 14.6671 5.31486V11.9815Z" fill="#CE2B37"/>
<path d="M2.81547 3.83337C2.42255 3.83337 2.04573 3.98946 1.7679 4.26729C1.49007 4.54512 1.33398 4.92194 1.33398 5.31486L1.33398 11.9815C1.33398 12.3744 1.49007 12.7513 1.7679 13.0291C2.04573 13.3069 2.42255 13.463 2.81547 13.463H5.77843V3.83337H2.81547Z" fill="#009246"/>
<path d="M5.7793 3.83337H10.2237V13.463H5.7793V3.83337Z" fill="#EEEEEE"/>
</svg>
