<svg width="20" height="20" viewBox="0 0 20 20" fill="none" xmlns="http://www.w3.org/2000/svg">
<path d="M14.4501 4.54996C14.2523 4.54996 14.059 4.60861 13.8945 4.71849C13.7301 4.82837 13.6019 4.98455 13.5262 5.16728C13.4505 5.35 13.4307 5.55107 13.4693 5.74505C13.5079 5.93903 13.6031 6.11721 13.743 6.25707C13.8828 6.39692 14.061 6.49216 14.255 6.53074C14.449 6.56933 14.65 6.54953 14.8328 6.47384C15.0155 6.39815 15.1717 6.26998 15.2816 6.10553C15.3914 5.94108 15.4501 5.74774 15.4501 5.54996C15.4501 5.28474 15.3447 5.03039 15.1572 4.84285C14.9697 4.65532 14.7153 4.54996 14.4501 4.54996ZM18.2834 6.56663C18.2672 5.87521 18.1377 5.19113 17.9001 4.54163C17.6882 3.9859 17.3584 3.48269 16.9334 3.06663C16.5208 2.63948 16.0164 2.31177 15.4584 2.10829C14.8106 1.86343 14.1258 1.73097 13.4334 1.71663C12.5501 1.66663 12.2667 1.66663 10.0001 1.66663C7.73341 1.66663 7.45008 1.66663 6.56675 1.71663C5.87437 1.73097 5.18953 1.86343 4.54175 2.10829C3.98481 2.31383 3.48086 2.64126 3.06675 3.06663C2.6396 3.47927 2.3119 3.98366 2.10841 4.54163C1.86355 5.18941 1.73109 5.87425 1.71675 6.56663C1.66675 7.44996 1.66675 7.73329 1.66675 9.99996C1.66675 12.2666 1.66675 12.55 1.71675 13.4333C1.73109 14.1257 1.86355 14.8105 2.10841 15.4583C2.3119 16.0163 2.6396 16.5206 3.06675 16.9333C3.48086 17.3587 3.98481 17.6861 4.54175 17.8916C5.18953 18.1365 5.87437 18.269 6.56675 18.2833C7.45008 18.3333 7.73341 18.3333 10.0001 18.3333C12.2667 18.3333 12.5501 18.3333 13.4334 18.2833C14.1258 18.269 14.8106 18.1365 15.4584 17.8916C16.0164 17.6881 16.5208 17.3604 16.9334 16.9333C17.3603 16.5188 17.6904 16.0151 17.9001 15.4583C18.1377 14.8088 18.2672 14.1247 18.2834 13.4333C18.2834 12.55 18.3334 12.2666 18.3334 9.99996C18.3334 7.73329 18.3334 7.44996 18.2834 6.56663ZM16.7834 13.3333C16.7773 13.8623 16.6815 14.3864 16.5001 14.8833C16.367 15.246 16.1533 15.5736 15.8751 15.8416C15.6048 16.117 15.2778 16.3303 14.9167 16.4666C14.4198 16.6481 13.8957 16.7439 13.3667 16.75C12.5334 16.7916 12.2251 16.8 10.0334 16.8C7.84175 16.8 7.53341 16.8 6.70008 16.75C6.15082 16.7602 5.60391 16.6757 5.08341 16.5C4.73823 16.3567 4.42621 16.1439 4.16675 15.875C3.89016 15.6072 3.67912 15.2793 3.55008 14.9166C3.34663 14.4126 3.23378 13.8766 3.21675 13.3333C3.21675 12.5 3.16675 12.1916 3.16675 9.99996C3.16675 7.80829 3.16675 7.49996 3.21675 6.66663C3.22048 6.12584 3.31921 5.58991 3.50841 5.08329C3.65512 4.73155 3.8803 4.41801 4.16675 4.16663C4.41993 3.8801 4.73282 3.65254 5.08341 3.49996C5.59137 3.31666 6.12675 3.22086 6.66675 3.21663C7.50008 3.21663 7.80841 3.16663 10.0001 3.16663C12.1917 3.16663 12.5001 3.16663 13.3334 3.21663C13.8624 3.22269 14.3865 3.3185 14.8834 3.49996C15.2621 3.6405 15.602 3.869 15.8751 4.16663C16.1482 4.42261 16.3615 4.73557 16.5001 5.08329C16.6853 5.59074 16.7812 6.12644 16.7834 6.66663C16.8251 7.49996 16.8334 7.80829 16.8334 9.99996C16.8334 12.1916 16.8251 12.5 16.7834 13.3333ZM10.0001 5.72496C9.15492 5.72661 8.32922 5.97873 7.62729 6.44947C6.92537 6.92022 6.37873 7.58846 6.05644 8.36975C5.73416 9.15105 5.65068 10.0103 5.81658 10.8391C5.98247 11.6678 6.39028 12.4287 6.98848 13.0258C7.58668 13.6228 8.34842 14.0291 9.17746 14.1934C10.0065 14.3577 10.8656 14.2725 11.6463 13.9487C12.427 13.6249 13.0941 13.077 13.5635 12.3742C14.0329 11.6713 14.2834 10.8451 14.2834 9.99996C14.2845 9.43755 14.1744 8.88046 13.9594 8.36076C13.7445 7.84105 13.4289 7.36897 13.0308 6.97167C12.6327 6.57437 12.16 6.25969 11.6399 6.04573C11.1198 5.83178 10.5625 5.72276 10.0001 5.72496ZM10.0001 12.775C9.45124 12.775 8.91472 12.6122 8.45837 12.3073C8.00203 12.0024 7.64635 11.569 7.43632 11.0619C7.22628 10.5548 7.17133 9.99688 7.2784 9.45858C7.38548 8.92029 7.64977 8.42583 8.03786 8.03774C8.42595 7.64965 8.92041 7.38535 9.45871 7.27828C9.997 7.17121 10.555 7.22616 11.062 7.43619C11.5691 7.64623 12.0025 8.00191 12.3074 8.45825C12.6123 8.9146 12.7751 9.45112 12.7751 9.99996C12.7751 10.3644 12.7033 10.7252 12.5638 11.0619C12.4244 11.3986 12.22 11.7045 11.9623 11.9622C11.7046 12.2199 11.3987 12.4243 11.062 12.5637C10.7253 12.7032 10.3645 12.775 10.0001 12.775Z" fill="#BB945E"/>
</svg>
