<svg width="296" height="64" viewBox="0 0 296 64" fill="none" xmlns="http://www.w3.org/2000/svg">
<g clip-path="url(#clip0_237_511)">
<path d="M28.7067 28.9263H24.8096C24.3156 28.9263 23.9131 29.3288 23.9131 29.8228V33.7199H28.7067V28.9263Z" fill="#BB945E"/>
<path d="M34.8176 29.8228C34.8176 29.3288 34.4151 28.9263 33.9211 28.9263H30.024V33.7199H34.8176V29.8228Z" fill="#BB945E"/>
<path d="M23.9314 38.916C23.9314 39.41 24.3339 39.8125 24.8279 39.8125H28.725V35.0189H23.9314V38.916Z" fill="#BB945E"/>
<path d="M30.024 39.8125H33.9211C34.4151 39.8125 34.8176 39.41 34.8176 38.916V35.0189H30.024V39.8125Z" fill="#BB945E"/>
<path d="M72.0686 13.9965C72.0686 13.7221 72.2882 13.4842 72.5809 13.4842H74.4837C74.7581 13.4842 74.996 13.7221 74.996 13.9965V19.833L80.4483 13.6855C80.5397 13.5757 80.6678 13.4659 80.8508 13.4659H83.0097C83.4122 13.4659 83.6318 13.9233 83.3573 14.2527L77.7038 20.6197L83.7599 27.865C83.9794 28.1395 83.7965 28.6152 83.3756 28.6152H81.052C80.8325 28.6152 80.7044 28.5237 80.6678 28.4688L75.0143 21.498V28.1029C75.0143 28.3773 74.7764 28.6152 74.502 28.6152H72.5992C72.2882 28.6152 72.0869 28.3773 72.0869 28.1029V13.9965H72.0686Z" fill="white"/>
<path d="M88.3888 28.0664L95.1218 13.5026C95.195 13.3745 95.2865 13.2648 95.4877 13.2648H95.7073C95.9268 13.2648 96.0183 13.3745 96.0732 13.5026L102.733 28.0664C102.861 28.3408 102.696 28.6336 102.367 28.6336H100.483C100.153 28.6336 100.007 28.5055 99.8605 28.1944L98.7993 25.8525H92.3225L91.2613 28.1944C91.1698 28.414 90.9869 28.6336 90.6392 28.6336H88.7547C88.4254 28.6336 88.2607 28.3408 88.3888 28.0664ZM97.7382 23.4557L95.5792 18.6987H95.506L93.3837 23.4557H97.7382Z" fill="white"/>
<path d="M108.386 13.6673C108.386 13.4477 108.588 13.2648 108.789 13.2648H110.838C111.076 13.2648 111.241 13.466 111.241 13.6673V22.5226C111.241 24.3705 112.503 25.8159 114.388 25.8159C116.272 25.8159 117.553 24.3705 117.553 22.5409V13.6673C117.553 13.4477 117.718 13.2648 117.955 13.2648H120.023C120.242 13.2648 120.425 13.466 120.425 13.6673V22.669C120.425 25.9623 117.809 28.6153 114.388 28.6153C110.985 28.6153 108.368 25.9623 108.368 22.669V13.6673H108.386Z" fill="white"/>
<path d="M128.274 13.8868C128.274 13.6672 128.439 13.4843 128.677 13.4843H137.477C137.715 13.4843 137.88 13.6855 137.88 13.8868V15.6615C137.88 15.8811 137.715 16.064 137.477 16.064H131.074V20.1258H136.416C136.636 20.1258 136.819 20.327 136.819 20.5283V22.303C136.819 22.5226 136.617 22.7055 136.416 22.7055H131.074V28.1761C131.074 28.3956 130.872 28.5786 130.671 28.5786H128.677C128.439 28.5786 128.274 28.3773 128.274 28.1761V13.8868Z" fill="white"/>
<path d="M146.04 13.3745C146.058 13.2098 146.186 13.0452 146.424 13.0452H146.772C146.937 13.0452 147.083 13.1366 147.138 13.2647L151.895 23.474C151.931 23.474 151.931 23.474 151.968 23.474L156.725 13.2647C156.798 13.1366 156.89 13.0452 157.091 13.0452H157.439C157.676 13.0452 157.805 13.1915 157.823 13.3745L160.384 27.92C160.457 28.231 160.274 28.4139 160 28.4139H158.024C157.823 28.4139 157.658 28.2493 157.622 28.0846L156.341 19.8879C156.323 19.8879 156.268 19.8879 156.268 19.8879L152.48 28.3957C152.444 28.5237 152.316 28.6335 152.114 28.6335H151.73C151.529 28.6335 151.419 28.5237 151.364 28.3957L147.54 19.8879C147.54 19.8879 147.504 19.8879 147.467 19.8879L146.205 28.0846C146.186 28.231 146.003 28.4139 145.821 28.4139H143.881C143.607 28.4139 143.424 28.2127 143.479 27.92L146.04 13.3745Z" fill="white"/>
<path d="M165.489 28.0664L172.222 13.5026C172.295 13.3745 172.386 13.2648 172.588 13.2648H172.807C173.027 13.2648 173.118 13.3745 173.173 13.5026L179.833 28.0664C179.961 28.3408 179.796 28.6336 179.467 28.6336H177.583C177.253 28.6336 177.107 28.5055 176.961 28.1944L175.899 25.8525H169.423L168.361 28.1944C168.27 28.414 168.087 28.6336 167.739 28.6336H165.855C165.544 28.6336 165.361 28.3408 165.489 28.0664ZM174.838 23.4557L172.679 18.6987H172.606L170.484 23.4557H174.838Z" fill="white"/>
<path d="M185.926 13.4294C185.926 13.2098 186.127 13.0452 186.328 13.0452H186.877L195.879 22.6141H195.897V13.6672C195.897 13.4477 196.062 13.2647 196.3 13.2647H198.294C198.513 13.2647 198.696 13.466 198.696 13.6672V28.231C198.696 28.4505 198.495 28.6152 198.294 28.6152H197.782L188.743 18.6804H188.725V27.9931C188.725 28.2127 188.56 28.3957 188.322 28.3957H186.346C186.127 28.3957 185.944 28.1944 185.944 27.9931V13.4294H185.926Z" fill="white"/>
<path d="M206.765 13.4294C206.765 13.2098 206.966 13.0452 207.168 13.0452H207.716L216.718 22.6141H216.736V13.6672C216.736 13.4477 216.901 13.2647 217.139 13.2647H219.133C219.353 13.2647 219.536 13.466 219.536 13.6672V28.231C219.536 28.4505 219.334 28.6152 219.133 28.6152H218.621L209.583 18.6804H209.564V27.9931C209.564 28.2127 209.4 28.3957 209.162 28.3957H207.186C206.966 28.3957 206.783 28.1944 206.783 27.9931V13.4294H206.765Z" fill="white"/>
<path d="M71.3916 36.3728C71.3916 36.2813 71.4648 36.2081 71.5563 36.2081H74.1543C75.6546 36.2081 76.6792 37.0681 76.6792 38.422C76.6792 39.3917 76.0937 40.1052 75.3436 40.398C76.2035 40.6358 76.9536 41.2579 76.9536 42.4471C76.9536 43.8193 75.8559 44.7707 74.2641 44.7707H71.5563C71.4648 44.7707 71.3916 44.6976 71.3916 44.6061V36.3728ZM74.319 44.2584C75.5082 44.2584 76.3316 43.5083 76.3316 42.4288C76.3316 41.3494 75.3985 40.6907 74.2458 40.6907H71.9588V44.2401H74.319V44.2584ZM74.2458 40.1784C75.3985 40.1784 76.0754 39.4648 76.0754 38.4586C76.0754 37.3974 75.3436 36.757 74.1726 36.757H71.9771V40.1784H74.2458Z" fill="white"/>
<path d="M80.1006 44.6243L83.8696 36.1166C83.8879 36.0617 83.9611 36.0251 84.016 36.0251H84.0526C84.1075 36.0251 84.1807 36.0434 84.2172 36.1166L87.9497 44.6243C87.968 44.6975 87.968 44.7707 87.8399 44.7707H87.5289C87.4374 44.7707 87.3825 44.7158 87.3642 44.6609L86.3762 42.4105H81.7107L80.741 44.6609C80.7227 44.7158 80.6495 44.7707 80.5763 44.7707H80.2287C80.1006 44.7707 80.064 44.7158 80.1006 44.6243ZM86.1383 41.9348L84.0526 37.0131H84.0343L81.9119 41.9348H86.1383Z" fill="white"/>
<path d="M91.4625 36.2447C91.4625 36.1533 91.5357 36.0801 91.6272 36.0801H91.8833C91.9748 36.0801 92.048 36.1533 92.048 36.2447V41.4592C92.048 43.0326 93.036 44.2036 94.6644 44.2036C96.311 44.2036 97.299 43.0509 97.299 41.4774V36.2447C97.299 36.1533 97.3539 36.0801 97.4637 36.0801H97.7015C97.793 36.0801 97.8662 36.1533 97.8662 36.2447V41.5323C97.8662 43.3985 96.6037 44.7708 94.6461 44.7708C92.7067 44.7708 91.4625 43.3985 91.4625 41.5323V36.2447Z" fill="white"/>
<path d="M104.672 44.0389L104.8 43.8376C104.837 43.7827 104.928 43.7462 105.02 43.8193C105.148 43.9108 105.642 44.295 106.319 44.295C107.014 44.295 107.49 43.9108 107.49 43.4351C107.49 42.8679 106.941 42.6484 106.118 42.3373C105.258 42.0263 104.617 41.6604 104.617 40.892C104.617 40.3614 105.093 39.6295 106.227 39.6295C106.868 39.6295 107.362 39.8674 107.6 40.0137C107.673 40.0686 107.691 40.1601 107.655 40.2516L107.581 40.3797C107.527 40.4711 107.435 40.4894 107.344 40.4345C107.234 40.3614 106.74 40.0869 106.227 40.0869C105.459 40.0869 105.185 40.5443 105.185 40.8737C105.185 41.3677 105.624 41.5872 106.337 41.8434C107.252 42.191 108.057 42.4837 108.057 43.3802C108.057 44.1121 107.307 44.7341 106.319 44.7341C105.496 44.7341 104.983 44.3865 104.709 44.1853C104.672 44.1853 104.636 44.1121 104.672 44.0389Z" fill="white"/>
<path d="M109.923 43.7827C110.198 43.7827 110.417 43.984 110.417 44.2767C110.417 44.5512 110.216 44.7707 109.923 44.7707C109.649 44.7707 109.429 44.5512 109.429 44.2767C109.429 44.0023 109.649 43.7827 109.923 43.7827Z" fill="white"/>
<path d="M114.863 40.032C114.863 39.9405 114.936 39.8673 115.028 39.8673H115.174C115.248 39.8673 115.302 39.9222 115.321 39.9954L115.376 40.4894C115.504 40.3247 115.979 39.7393 116.912 39.7393C117.297 39.7393 117.571 39.849 117.663 39.8856C117.772 39.9222 117.827 40.0137 117.791 40.1052L117.699 40.343C117.663 40.4345 117.589 40.4345 117.498 40.3979C117.443 40.3796 117.187 40.2516 116.858 40.2516C115.906 40.2516 115.449 41.02 115.412 41.0932V44.5694C115.412 44.6609 115.357 44.7341 115.248 44.7341H115.01C114.918 44.7341 114.882 44.6609 114.882 44.5694V40.032H114.863Z" fill="white"/>
<path d="M118.998 43.7827C119.273 43.7827 119.492 43.984 119.492 44.2767C119.492 44.5512 119.291 44.7707 118.998 44.7707C118.724 44.7707 118.504 44.5512 118.504 44.2767C118.486 44.0023 118.724 43.7827 118.998 43.7827Z" fill="white"/>
<path d="M126.024 39.6295C127.396 39.6295 128.476 40.7822 128.476 42.191C128.476 43.6181 127.396 44.7707 126.024 44.7707C124.652 44.7707 123.572 43.6181 123.572 42.191C123.554 40.8005 124.633 39.6295 126.024 39.6295ZM126.024 44.2584C127.103 44.2584 127.945 43.3436 127.945 42.1727C127.945 41.0566 127.103 40.1235 126.024 40.1235C124.944 40.1235 124.085 41.0383 124.085 42.1727C124.085 43.3436 124.926 44.2584 126.024 44.2584Z" fill="white"/>
<path d="M130.415 43.7827C130.689 43.7827 130.909 43.984 130.909 44.2767C130.909 44.5512 130.708 44.7707 130.415 44.7707C130.141 44.7707 129.921 44.5512 129.921 44.2767C129.903 44.0023 130.141 43.7827 130.415 43.7827Z" fill="white"/>
<path d="M29.1824 0C15.881 0 4.61061 8.83705 0.896486 20.9308C0.182935 23.4008 0.0182694 25.3768 -2.67889e-05 26.3282C-0.018323 28.1761 0.146343 30.9022 0.987966 33.1527C1.00626 33.171 1.00626 33.2076 1.02456 33.2258C1.06115 33.3173 1.09774 33.4088 1.13434 33.5186C1.17093 33.6101 1.20752 33.7015 1.24411 33.793C1.28071 33.8479 1.299 33.9211 1.33559 33.976C1.57344 34.4517 1.82959 34.9091 2.15892 35.3116L29.1824 19.3391L53.8639 33.9577C53.8273 34.1224 53.809 34.287 53.7724 34.47C53.5712 35.6226 53.2601 36.7387 52.8942 37.8548C52.5283 38.9708 52.0526 40.032 51.5586 41.0932C49.4911 45.283 46.2344 48.924 42.2458 51.5037C41.2395 52.1441 40.1967 52.7296 39.1172 53.2419C20.1806 60.3774 9.60546 45.1001 9.60546 45.1001C9.60546 45.1001 9.75183 46.6552 10.4288 48.1921C10.5752 48.558 10.7764 48.9423 11.0875 49.3631C11.2155 49.546 11.3619 49.7473 11.5266 49.9119C11.5266 49.9119 11.5266 49.912 11.5449 49.9302C11.6912 50.1132 11.8742 50.2962 12.0571 50.4791C6.44023 48.3385 5.06801 43.9291 4.40935 41.7702C4.33617 41.4774 4.26298 41.1847 4.26298 40.9468C6.47682 41.1481 17.1435 45.0818 19.3756 50.8816C19.3939 50.9548 19.4854 50.9914 19.5586 50.9731C19.6318 50.9548 19.6684 50.8817 19.6501 50.8085C19.6135 50.6987 16.6312 39.2453 1.299 37.8914C1.22582 37.8914 1.17093 37.928 1.15263 38.0011C1.13434 38.1841 1.11604 38.5866 1.11604 39.1172C1.11604 39.1172 1.22582 44.8073 4.88505 48.3751C5.30586 48.7593 5.72667 49.1069 6.16578 49.4363C6.38534 49.5826 6.5683 49.7107 6.73296 49.8388C7.19037 50.1498 7.64777 50.4425 8.08688 50.6987C11.2338 52.5466 14.4722 53.3882 15.6798 53.6627C17.3081 54.7787 19.3573 55.8216 21.9371 56.5901C23.3459 57.0658 24.7913 57.4317 26.255 57.6695C22.2481 58.7124 14.6735 60.0846 10.319 58.7307C10.319 58.7307 11.6546 61.1092 16.1738 61.1458C12.2401 62.3899 9.71524 61.8411 9.4408 61.7862C6.67807 61.1824 5.32416 59.7736 4.88505 59.426C5.5986 58.6941 10.0629 54.0835 18.1681 57.3768C18.223 57.3951 18.2961 57.3768 18.3144 57.3219C18.351 57.267 18.3327 57.1938 18.2778 57.1572C18.1864 57.084 9.23954 50.2596 1.35389 59.06C1.3173 59.1149 1.3173 59.1881 1.35389 59.2247C4.6472 62.6827 7.84903 63.817 10.4471 63.9451C11.5266 64 12.5146 63.8902 13.3562 63.7073C16.3202 63.0486 18.3144 61.3471 18.5706 61.1275L18.6438 61.0726C18.6621 61.0726 18.6804 61.0726 18.6987 61.0726C18.7535 61.0726 18.8084 61.0543 18.8816 61.0543C19.1927 61.0177 19.5037 60.9628 19.833 60.908C19.833 60.908 19.833 60.908 19.8513 60.908C20.3819 60.7982 20.9308 60.6701 21.5163 60.5054C24.4985 59.8651 29.1092 58.8222 31.8353 57.9989C36.0617 57.8159 40.3064 56.6266 44.0754 54.5409C46.4356 53.2236 48.6312 51.5769 50.534 49.6192C51.5037 48.6678 52.3819 47.6066 53.1869 46.5089C53.992 45.4111 54.7238 44.2401 55.3825 43.0326C56.0228 41.825 56.59 40.5626 57.0474 39.2819C57.5048 37.9828 57.8891 36.6655 58.1635 35.3299C58.4379 33.976 58.6209 32.6221 58.6941 31.2499C58.7307 30.701 58.749 30.1521 58.749 29.6215L58.7673 29.5666C58.749 13.2647 45.4842 0 29.1824 0ZM54.2298 29.2373L43.618 22.9617V16.2836C43.618 15.8445 43.2521 15.4786 42.813 15.4786H38.8244V20.1258L29.1641 14.3991L4.13491 29.2373C4.31787 15.57 15.4785 4.51915 29.1824 4.51915C41.825 4.51915 52.3087 13.9234 53.992 26.1086C54.0469 26.566 54.12 27.0417 54.1383 27.4991C54.1566 27.7919 54.1932 28.0846 54.1932 28.3591C54.1932 28.3774 54.1932 28.3957 54.1932 28.3957C54.2115 28.6884 54.2115 28.9628 54.2298 29.2373Z" fill="url(#paint0_linear_237_511)"/>
</g>
<defs>
<linearGradient id="paint0_linear_237_511" x1="29.3727" y1="64.0072" x2="29.3727" y2="0" gradientUnits="userSpaceOnUse">
<stop stop-color="#935B2E"/>
<stop offset="1" stop-color="#BB945E"/>
</linearGradient>
<clipPath id="clip0_237_511">
<rect width="296" height="64" fill="white"/>
</clipPath>
</defs>
</svg>
