<svg width="20" height="20" viewBox="0 0 20 20" fill="none" xmlns="http://www.w3.org/2000/svg">
<path d="M9.88818 19.4635C15.1888 19.4635 18.3411 17.6788 18.3411 15.6384C18.3411 13.3894 14.882 11.9498 12.1779 11.8434V13.311C14.0179 13.3904 16.4499 14.2557 16.4499 15.4692C16.4499 16.9089 13.6804 17.912 9.88818 17.912C6.0823 17.912 3.32656 16.9226 3.32656 15.4692C3.32656 14.2557 5.75167 13.3904 7.59168 13.311V11.8434C4.88751 11.9498 1.42847 13.3894 1.42847 15.6384C1.42847 17.6788 4.58767 19.4635 9.88818 19.4635Z" fill="#BB945E"/>
<path fill-rule="evenodd" clip-rule="evenodd" d="M9.00958 7.23018C7.60301 6.84932 6.5813 5.56763 6.5813 4.03716C6.5813 2.21105 8.053 0.714233 9.88601 0.714233C11.7273 0.714233 13.199 2.21105 13.199 4.03716C13.199 5.56763 12.1689 6.85769 10.7609 7.23018V12.5031C10.7609 14.7909 10.2548 16.1875 9.88601 16.1875C9.52401 16.1875 9.00958 14.7826 9.00958 12.5031V7.23018ZM7.81934 3.08254C7.81934 3.69861 8.34869 4.22646 8.94802 4.22646C9.57245 4.22646 10.0836 3.69861 10.0836 3.08254C10.0836 2.47334 9.57245 1.95386 8.94802 1.95386C8.34869 1.95386 7.81934 2.47334 7.81934 3.08254Z" fill="#BB945E"/>
</svg>
