<svg width="24" height="24" viewBox="0 0 24 24" fill="none" xmlns="http://www.w3.org/2000/svg">
<path d="M21.0001 7.66404H3.00531C2.74013 7.66404 2.48581 7.55869 2.2983 7.37118C2.11079 7.18367 2.00545 6.92935 2.00545 6.66417C2.00545 6.39899 2.11079 6.14467 2.2983 5.95716C2.48581 5.76965 2.74013 5.66431 3.00531 5.66431H21.0001C21.2653 5.66431 21.5196 5.76965 21.7072 5.95716C21.8947 6.14467 22 6.39899 22 6.66417C22 6.92935 21.8947 7.18367 21.7072 7.37118C21.5196 7.55869 21.2653 7.66404 21.0001 7.66404ZM14.3525 12.0122C14.3518 11.7473 14.2463 11.4934 14.0589 11.306C13.8715 11.1186 13.6176 11.0131 13.3527 11.0124H2.99986C2.73468 11.0124 2.48036 11.1177 2.29285 11.3052C2.10534 11.4927 2 11.747 2 12.0122C2 12.2774 2.10534 12.5317 2.29285 12.7192C2.48036 12.9067 2.73468 13.0121 2.99986 13.0121H13.3527C13.6176 13.0114 13.8715 12.9058 14.0589 12.7184C14.2463 12.5311 14.3518 12.2772 14.3525 12.0122ZM17.3985 17.3357C17.3977 17.0708 17.2922 16.8169 17.1048 16.6295C16.9175 16.4422 16.6636 16.3366 16.3986 16.3359H3.00531C2.74013 16.3359 2.48581 16.4412 2.2983 16.6287C2.11079 16.8162 2.00545 17.0706 2.00545 17.3357C2.00545 17.6009 2.11079 17.8552 2.2983 18.0428C2.48581 18.2303 2.74013 18.3356 3.00531 18.3356H16.4013C16.6658 18.3342 16.919 18.2283 17.1058 18.041C17.2925 17.8537 17.3977 17.6002 17.3985 17.3357Z" fill="#BB945E"/>
</svg>
