<svg width="12" height="12" viewBox="0 0 12 12" fill="none" xmlns="http://www.w3.org/2000/svg">
<path d="M3.0708 5.83548C3.0717 5.66474 3.13727 5.51024 3.27069 5.3833L7.18829 1.55928C7.29808 1.44948 7.43388 1.39025 7.59289 1.39025C7.92094 1.39025 8.17969 1.64487 8.17969 1.97019C8.17969 2.1292 8.11591 2.27727 8.00391 2.39067L4.21877 6.08139L4.21877 5.59008L8.00391 9.28443C8.1141 9.39461 8.17969 9.54177 8.17969 9.70579C8.17969 10.032 7.92094 10.2858 7.59289 10.2858C7.43478 10.2858 7.29898 10.2256 7.18417 10.1176L3.27069 6.29182C3.13547 6.15661 3.0708 6.00946 3.0708 5.83548Z" fill="#BB945E"/>
</svg>
