<svg width="20" height="20" viewBox="0 0 20 20" fill="none" xmlns="http://www.w3.org/2000/svg">
<path d="M6.48847 14.1877C8.95878 16.6611 11.9495 18.5608 14.3926 18.5608C15.489 18.5608 16.4514 18.1796 17.2237 17.3275C17.6748 16.8261 17.945 16.2486 17.945 15.6733C17.945 15.2291 17.774 14.8018 17.3549 14.4976L14.7791 12.6683C14.3737 12.3884 14.0397 12.2544 13.7338 12.2544C13.3466 12.2544 12.9989 12.4766 12.6078 12.8593L12.0045 13.4573C11.9124 13.5494 11.7922 13.5912 11.6834 13.5912C11.5548 13.5912 11.4248 13.541 11.3395 13.4946C10.813 13.2094 9.91068 12.4341 9.07295 11.6032C8.24209 10.7724 7.46681 9.86999 7.18841 9.34349C7.14204 9.25144 7.09181 9.12823 7.09181 9.00116C7.09181 8.89084 7.1268 8.7775 7.21888 8.68542L7.82373 8.06835C8.19957 7.67728 8.42859 7.33643 8.42859 6.94234C8.42859 6.63649 8.28779 6.3025 8.00102 5.89704L6.19232 3.34871C5.88428 2.92281 5.44701 2.7395 4.97541 2.7395C4.4109 2.7395 3.8402 2.98761 3.34182 3.46623C2.51029 4.25373 2.14282 5.2299 2.14282 6.31104C2.14282 8.75406 4.01514 11.7243 6.48847 14.1877Z" fill="#BB945E"/>
</svg>
