<svg width="60" height="60" viewBox="0 0 60 60" fill="none" xmlns="http://www.w3.org/2000/svg">
<mask id="mask0_7_643" style="mask-type:luminance" maskUnits="userSpaceOnUse" x="0" y="0" width="60" height="60">
<path d="M60 0H0V60H60V0Z" fill="white"/>
</mask>
<g mask="url(#mask0_7_643)">
<path d="M45.9375 1.875V13.125" stroke="white" stroke-width="2" stroke-miterlimit="10" stroke-linecap="square"/>
<path d="M54.375 26.25V19.6875L45.9375 13.125L37.5 19.6875V26.25" stroke="white" stroke-width="2" stroke-miterlimit="10" stroke-linecap="square"/>
<path d="M37.5 50.625V33.75H54.375V50.625" stroke="white" stroke-width="2" stroke-miterlimit="10" stroke-linecap="square"/>
<path d="M5.625 50.625V26.25H30V50.625" stroke="white" stroke-width="2" stroke-miterlimit="10" stroke-linecap="square"/>
<path d="M14.0625 33.75H21.5625" stroke="white" stroke-width="2" stroke-miterlimit="10" stroke-linecap="square"/>
<path d="M44.0625 39.375H47.8125" stroke="white" stroke-width="2" stroke-miterlimit="10" stroke-linecap="square"/>
<path d="M54.375 50.625H5.625C3.55393 50.625 1.875 52.3039 1.875 54.375C1.875 56.4461 3.55393 58.125 5.625 58.125H54.375C56.4461 58.125 58.125 56.4461 58.125 54.375C58.125 52.3039 56.4461 50.625 54.375 50.625Z" stroke="white" stroke-width="2" stroke-miterlimit="10" stroke-linecap="square"/>
</g>
</svg>
