<svg width="40" height="40" viewBox="0 0 40 40" fill="none" xmlns="http://www.w3.org/2000/svg">
<path d="M20.3685 17.7719C26.9364 17.7719 33.1918 16.7792 39.2935 14.2345V13.011C39.2935 9.46763 37.4745 7.676 33.9037 7.676H29.1334V6.10336C29.1334 2.93796 27.4218 1.42859 24.2713 1.42859H16.4431C13.4464 1.42859 11.6036 2.93796 11.6036 6.10336V7.676H6.81963C3.2625 7.676 1.42969 9.46763 1.42969 13.011V14.2345C7.53147 16.7792 13.7869 17.7719 20.3685 17.7719ZM14.6384 7.676V6.10302C14.6384 4.9 15.3207 4.22835 16.5513 4.22835H24.1691C25.3995 4.22835 26.0987 4.90302 26.0987 6.10302V7.676H14.6384ZM6.81963 34.6713H33.9037C37.4745 34.6713 39.2935 32.866 39.2935 29.3363V17.3747C34.2214 19.2169 29.6324 20.1059 24.9934 20.439V21.768C24.9934 23.0272 24.2725 23.7223 22.9724 23.7223H17.7508C16.4645 23.7223 15.7407 23.0272 15.7407 21.768V20.439C11.0879 20.1059 6.49887 19.2169 1.42969 17.3747V29.3363C1.42969 32.866 3.2625 34.6713 6.81963 34.6713Z" fill="#BB945E"/>
</svg>
