<svg width="40" height="40" viewBox="0 0 40 40" fill="none" xmlns="http://www.w3.org/2000/svg">
<path d="M20.2345 22.1853C20.9421 22.1853 21.5873 21.8521 22.342 21.0974L36.9368 6.60804C36.2933 6.02646 35.1351 5.74487 33.4928 5.74487H6.50054C5.06717 5.74487 4.04932 6.01273 3.46372 6.55313L18.1273 21.0974C18.8713 21.8384 19.5134 22.1853 20.2345 22.1853ZM1.87835 32.2771L13.8921 20.3703L1.89308 8.53259C1.59074 9.05258 1.42969 9.92846 1.42969 11.168V29.6681C1.42969 30.896 1.57567 31.7691 1.87835 32.2771ZM6.92142 35.105H33.9137C35.3833 35.105 36.4175 34.8221 37.0181 34.2653L24.7731 22.1133L23.7405 23.1595C22.5703 24.2855 21.4641 24.7998 20.2345 24.7998C18.9914 24.7998 17.8821 24.2855 16.7257 23.1595L15.6824 22.1193L3.46473 34.2515C4.14006 34.8221 5.28414 35.105 6.92142 35.105ZM38.5527 32.2634C38.8385 31.7417 38.9875 30.8823 38.9875 29.6681V11.168C38.9875 9.95592 38.8265 9.08003 38.538 8.57378L26.5634 20.3703L38.5527 32.2634Z" fill="#BB945E"/>
</svg>
