<svg width="40" height="40" viewBox="0 0 40 40" fill="none" xmlns="http://www.w3.org/2000/svg">
<path d="M8.34817 35.5673H31.3822C34.9956 35.5673 36.8602 33.7026 36.8602 30.1305V9.75591C36.8602 6.1807 34.9956 4.31909 31.3822 4.31909H8.34817C4.73479 4.31909 2.85645 6.16697 2.85645 9.75591V30.1305C2.85645 33.7165 4.73479 35.5673 8.34817 35.5673ZM8.30196 32.2875C6.89637 32.2875 6.13633 31.5669 6.13633 30.0943V14.6269C6.13633 13.1681 6.89637 12.4368 8.30196 12.4368H31.401C32.8066 12.4368 33.5803 13.1681 33.5803 14.6269V30.0943C33.5803 31.5669 32.8066 32.2875 31.401 32.2875H8.30196ZM16.6444 18.239H17.6322C18.227 18.239 18.4203 18.0625 18.4203 17.4675V16.4798C18.4203 15.8848 18.227 15.6946 17.6322 15.6946H16.6444C16.0494 15.6946 15.8425 15.8848 15.8425 16.4798V17.4675C15.8425 18.0625 16.0494 18.239 16.6444 18.239ZM22.115 18.239H23.1027C23.6977 18.239 23.9077 18.0625 23.9077 17.4675V16.4798C23.9077 15.8848 23.6977 15.6946 23.1027 15.6946H22.115C21.52 15.6946 21.3132 15.8848 21.3132 16.4798V17.4675C21.3132 18.0625 21.52 18.239 22.115 18.239ZM27.5887 18.239H28.5764C29.1714 18.239 29.3783 18.0625 29.3783 17.4675V16.4798C29.3783 15.8848 29.1714 15.6946 28.5764 15.6946H27.5887C26.9937 15.6946 26.8006 15.8848 26.8006 16.4798V17.4675C26.8006 18.0625 26.9937 18.239 27.5887 18.239ZM11.1737 23.6259H12.1447C12.7564 23.6259 12.9496 23.4495 12.9496 22.8545V21.8668C12.9496 21.2718 12.7564 21.0953 12.1447 21.0953H11.1737C10.562 21.0953 10.3688 21.2718 10.3688 21.8668V22.8545C10.3688 23.4495 10.562 23.6259 11.1737 23.6259ZM16.6444 23.6259H17.6322C18.227 23.6259 18.4203 23.4495 18.4203 22.8545V21.8668C18.4203 21.2718 18.227 21.0953 17.6322 21.0953H16.6444C16.0494 21.0953 15.8425 21.2718 15.8425 21.8668V22.8545C15.8425 23.4495 16.0494 23.6259 16.6444 23.6259ZM22.115 23.6259H23.1027C23.6977 23.6259 23.9077 23.4495 23.9077 22.8545V21.8668C23.9077 21.2718 23.6977 21.0953 23.1027 21.0953H22.115C21.52 21.0953 21.3132 21.2718 21.3132 21.8668V22.8545C21.3132 23.4495 21.52 23.6259 22.115 23.6259ZM27.5887 23.6259H28.5764C29.1714 23.6259 29.3783 23.4495 29.3783 22.8545V21.8668C29.3783 21.2718 29.1714 21.0953 28.5764 21.0953H27.5887C26.9937 21.0953 26.8006 21.2718 26.8006 21.8668V22.8545C26.8006 23.4495 26.9937 23.6259 27.5887 23.6259ZM11.1737 29.0266H12.1447C12.7564 29.0266 12.9496 28.8395 12.9496 28.2415V27.2568C12.9496 26.6588 12.7564 26.4853 12.1447 26.4853H11.1737C10.562 26.4853 10.3688 26.6588 10.3688 27.2568V28.2415C10.3688 28.8395 10.562 29.0266 11.1737 29.0266ZM16.6444 29.0266H17.6322C18.227 29.0266 18.4203 28.8395 18.4203 28.2415V27.2568C18.4203 26.6588 18.227 26.4853 17.6322 26.4853H16.6444C16.0494 26.4853 15.8425 26.6588 15.8425 27.2568V28.2415C15.8425 28.8395 16.0494 29.0266 16.6444 29.0266ZM22.115 29.0266H23.1027C23.6977 29.0266 23.9077 28.8395 23.9077 28.2415V27.2568C23.9077 26.6588 23.6977 26.4853 23.1027 26.4853H22.115C21.52 26.4853 21.3132 26.6588 21.3132 27.2568V28.2415C21.3132 28.8395 21.52 29.0266 22.115 29.0266Z" fill="#BB945E"/>
</svg>
