<svg width="40" height="40" viewBox="0 0 40 40" fill="none" xmlns="http://www.w3.org/2000/svg">
<path fill-rule="evenodd" clip-rule="evenodd" d="M28.986 37.6649H11.1526C7.56671 37.6649 5.71582 35.8002 5.71582 32.1838V6.92321C5.71582 3.32054 7.58043 1.42847 11.1526 1.42847H18.7946V14.081C18.7946 16.1786 19.8128 17.1969 21.9074 17.1969H34.4227V32.1838C34.4227 35.7865 32.5748 37.6649 28.986 37.6649ZM21.4736 21.6827C21.4736 20.9334 20.8322 20.3556 20.0691 20.3556C19.309 20.3556 18.6782 20.9334 18.6782 21.6827V27.2354L18.8028 29.7403L16.163 27.0353C15.9106 26.7827 15.5487 26.6097 15.2112 26.6097C14.4752 26.6097 13.9492 27.1297 13.9492 27.8262C13.9492 28.2306 14.1029 28.5363 14.3932 28.793L19.0054 33.0309C19.3733 33.3623 19.6894 33.5127 20.0691 33.5127C20.4488 33.5127 20.7648 33.3623 21.1328 33.0309L25.7449 28.793C26.0382 28.5363 26.1919 28.2306 26.1919 27.8262C26.1919 27.1297 25.6492 26.6097 24.9271 26.6097C24.5758 26.6097 24.2245 26.7827 23.9751 27.0353L22.6091 28.4409L21.3353 29.7403L21.4736 27.2354V21.6827Z" fill="#BB945E"/>
<path d="M34.24 14.7497H22.2048C21.5582 14.7497 21.2418 14.4333 21.2418 13.8005V1.60057C22.0052 1.7057 22.7458 2.25748 23.587 3.10927L32.7268 12.3895C33.5967 13.2761 34.1515 14 34.24 14.7497Z" fill="#BB945E"/>
</svg>
