<svg width="43" height="40" viewBox="0 0 43 40" fill="none" xmlns="http://www.w3.org/2000/svg">
<path d="M4.56473 38.3331C6.14509 39.9136 8.0549 39.8054 9.64296 37.9756L25.624 19.6581L20.3977 14.432L2.03918 30.3719C0.195655 31.9736 0.101237 33.8697 1.6846 35.4667L4.56473 38.3331ZM34.7341 23.5394C35.5654 24.3343 36.5456 24.3876 37.3313 23.5987L42.3281 18.6263C43.0836 17.8679 43.0303 16.8467 42.2277 16.0459L41.0466 14.8479C40.3363 14.1484 39.8606 14.0419 39.1001 14.1012L37.268 14.3174L36.0667 13.1192L36.5967 10.8973C36.8934 9.65777 36.437 8.39348 35.1547 7.11111L31.8229 3.80375C27.0603 -0.942005 18.2087 -1.44892 13.3347 3.42942C12.4678 4.29928 12.5763 5.30877 13.1164 5.95932C13.5574 6.44982 14.2913 6.71701 15.07 6.48767C18.2003 5.5649 20.9844 5.36868 23.311 6.73477L22.1244 9.84225C21.5419 11.3406 21.8341 12.4294 22.8166 13.4285L26.4263 17.0413C27.2603 17.8753 28.1037 18.1364 29.2973 17.8947L31.7967 17.3784L32.9874 18.5767L32.8001 20.4149C32.7319 21.1967 32.823 21.6893 33.5559 22.378L34.7341 23.5394Z" fill="#BB945E"/>
</svg>
