<svg width="40" height="40" viewBox="0 0 40 40" fill="none" xmlns="http://www.w3.org/2000/svg">
<path d="M19.7769 38.9271C30.378 38.9271 36.6827 35.3576 36.6827 31.2768C36.6827 26.7788 29.7646 23.8996 24.3563 23.6868V26.6221C28.0363 26.7808 32.9003 28.5115 32.9003 30.9383C32.9003 33.8178 27.3613 35.8241 19.7769 35.8241C12.1651 35.8241 6.65361 33.8452 6.65361 30.9383C6.65361 28.5115 11.5038 26.7808 15.1839 26.6221V23.6868C9.77551 23.8996 2.85742 26.7788 2.85742 31.2768C2.85742 35.3576 9.17582 38.9271 19.7769 38.9271Z" fill="#BB945E"/>
<path fill-rule="evenodd" clip-rule="evenodd" d="M18.0206 14.4604C15.2075 13.6986 13.1641 11.1353 13.1641 8.07432C13.1641 4.4221 16.1075 1.42847 19.7735 1.42847C23.456 1.42847 26.3995 4.4221 26.3995 8.07432C26.3995 11.1353 24.3393 13.7154 21.5232 14.4604V25.0062C21.5232 29.5819 20.511 32.375 19.7735 32.375C19.0495 32.375 18.0206 29.5652 18.0206 25.0062V14.4604ZM15.6401 6.16509C15.6401 7.39721 16.6988 8.45292 17.8975 8.45292C19.1464 8.45292 20.1687 7.39721 20.1687 6.16509C20.1687 4.94667 19.1464 3.90771 17.8975 3.90771C16.6988 3.90771 15.6401 4.94667 15.6401 6.16509Z" fill="#BB945E"/>
</svg>
